HIERARCHY
ROOT base
{
	OFFSET 0.0 0.0 0.0
	CHANNELS 6 Xposition Yposition Zposition Zrotation Yrotation Xrotation
	JOINT root
	{
		OFFSET 0 0 0
		CHANNELS 6 Xposition Yposition Zposition Zrotation Yrotation Xrotation
		JOINT chest
		{
			OFFSET 0 4.72302 0
			CHANNELS 3 Zrotation Yrotation Xrotation
			JOINT neck
			{
				OFFSET 0 4.47788 0
				CHANNELS 3 Zrotation Yrotation Xrotation
				End Site
				{
					OFFSET 0.0 0.0 0.0
				}
			}
			JOINT right_shoulder
			{
				OFFSET -0.481 4.87 3.6622
				CHANNELS 3 Zrotation Yrotation Xrotation
				JOINT right_elbow
				{
					OFFSET 0 -5.49576 0
					CHANNELS 3 Zrotation Yrotation Xrotation
					JOINT right_wrist
					{
						OFFSET 0 -5.17894 0
						CHANNELS 3 Zrotation Yrotation Xrotation
						End Site
						{
							OFFSET 0.0 0.0 0.0
						}
					}
				}
			}
			JOINT left_shoulder
			{
				OFFSET -0.481 4.87 -3.6622
				CHANNELS 3 Zrotation Yrotation Xrotation
				JOINT left_elbow
				{
					OFFSET 0 -5.49576 0
					CHANNELS 3 Zrotation Yrotation Xrotation
					JOINT left_wrist
					{
						OFFSET 0 -5.17894 0
						CHANNELS 3 Zrotation Yrotation Xrotation
						End Site
						{
							OFFSET 0.0 0.0 0.0
						}
					}
				}
			}
		}
		JOINT right_hip
		{
			OFFSET 0 0 1.69774
			CHANNELS 3 Zrotation Yrotation Xrotation
			JOINT right_knee
			{
				OFFSET 0 -8.43092 0
				CHANNELS 3 Zrotation Yrotation Xrotation
				JOINT right_ankle
				{
					OFFSET 0 -8.1974 0
					CHANNELS 3 Zrotation Yrotation Xrotation
					End Site
					{
						OFFSET 0.0 0.0 0.0
					}
				}
			}
		}
		JOINT left_hip
		{
			OFFSET 0 0 -1.69774
			CHANNELS 3 Zrotation Yrotation Xrotation
			JOINT left_knee
			{
				OFFSET 0 -8.43092 0
				CHANNELS 3 Zrotation Yrotation Xrotation
				JOINT left_ankle
				{
					OFFSET 0 -8.1974 0
					CHANNELS 3 Zrotation Yrotation Xrotation
					End Site
					{
						OFFSET 0.0 0.0 0.0
					}
				}
			}
		}
	}
	JOINT red_arrow
	{
		OFFSET 0 0 0
		CHANNELS 3 Zrotation Yrotation Xrotation
		End Site
		{
			OFFSET 0.0 0.0 0.0
		}
	}
	JOINT blue_arrow
	{
		OFFSET 0 0 0
		CHANNELS 3 Zrotation Yrotation Xrotation
		End Site
		{
			OFFSET 0.0 0.0 0.0
		}
	}
}
MOTION
Frames: 15
Frame Time: 0.0333333333333333
0 18.08466 0 0 0 0 0 0 0 0 -90 0 0 0 0 0 0 0 0 0 -90 0 0 0 0 0 0 0 0 90 0 0 0 0 0 0 0 0 0 0 0 0 0 0 0 0 0 0 0 0 0 0 0 0 0 0 0 0 0 0
-0.262268386781216 0 -0.10150684081018 0 0.614770282416873 0 0 17.5674402594566 0 -2.59435038967442 2.20526740609287E-16 0.92347600571878 6.6274043904614 -2.59955123918741 1.48243823495931 -19.7592374054733 -6.06239712306907 9.43211337916513 8.19633326596964 -1.92491342579341 -9.08974692498719 10.4210791638769 0 0 0 0 0 6.41540600974076 -7.09586985832891 11.6830875627739 3.65648158112427 0 0 0 0 0 -1.95970521922205 0.842512926154593 -2.59399331184835 -2.86699004680283 0 0 7.61400095412456 -1.92638476632682 1.11803184061091 4.53877242634333 -5.01699554149806 2.09181996404732 -0.72076521039741 0 0 -1.44909375190649 5.42399492093903 -3.24627303093417 0 0 0 0 0 0
-0.555404482781887 0 -0.151119904220104 0 0.612432145598909 0 0 17.5628989100456 0 -3.25418513752838 -0.044352966093854 0.772325392379176 5.88675983220065 -2.24269476974724 3.26209635231982 -19.1411866085661 -4.93907086941809 9.18295966270211 6.08159213311863 -6.76539560741366 -13.6201434981764 9.8711772187046 0 0 0 0 0 2.43932822862657 -5.62573242746167 17.440343281339 1.65635171630106 0 0 0 0 0 0.88682676844576 0.122241970405437 -2.58618663461969 -5.25327607557523 0 0 7.56969629881231 -1.63858695448885 1.78675936430207 6.86744792202514 -3.69280876954874 2.0320822592291 -1.96996380074531 0 0 -1.80728872981112 4.07976046569017 -3.03870357914688 0 0 0 0 0 0
-0.879260112345219 0 -0.154573799856007 0 0.616199657765157 0 0 17.5557311177254 0 -4.23886398568427 0.0713869218112106 0.287508328436791 5.14529729068046 -1.68395438833374 4.35463350264396 -17.8536723312745 -3.60302459963381 8.62930824368668 5.40055029014406 -12.1125669909645 -19.2235317214984 8.88137779381127 0 0 0 0 0 -1.32983837028446 -3.88711679608364 24.6939104406414 -0.0207383402928031 0 0 0 0 0 4.04253744948195 0.00498149320076645 -2.13252144764648 -7.41653102818073 0 0 7.56432538633755 -1.56290342681548 1.81335336014303 9.43071838437843 -2.32732708024791 2.48197705538462 -2.79261611693057 0 0 -2.51893624512257 2.47558115448861 -2.97749322593331 0 0 0 0 0 0
-1.27441734373569 0 -0.15845850314945 0 0.629025451769324 0 0 17.5352289199829 0 -5.75928849539112 0.242460017387732 -0.240228508018815 3.66354998399524 -1.10398131494461 4.93856401069147 -16.1236953393894 -2.42171082718514 7.6338645395132 5.97477413825817 -17.3468480870836 -26.6473736087041 6.97546857431939 0 0 0 0 0 -5.19252860457379 -0.251138360874425 33.0244638489422 -0.000228251725672777 0 0 0 0 0 8.11202299526897 -0.329640075761928 -1.67874550399269 -9.86427018990643 0 0 7.46547818013211 -1.37954411252695 1.84962195892646 12.9986873705089 -0.88327170756058 2.77330152999174 -3.84041686792542 0 0 -3.49935501501766 1.87333553494069 -2.65272057000026 0 0 0 0 0 0
-1.7501897662878 0 -0.166412736847997 0 0.665548819221555 0 0 17.4876794338226 0 -7.87623076824344 0.687398220756454 -0.735331785459177 1.22087771190118 -0.693839991484567 4.87921485535543 -14.3558178996354 -1.54439842050305 6.1810830614416 6.21906634235352 -22.7740388792661 -35.3219421856531 3.51553208986459 0 0 0 0 0 -9.01183935087911 5.99139545650947 41.3041441052397 -0.000240102837594477 0 0 0 0 0 13.4624810983643 -1.44132327114261 -1.44846146036989 -13.1923379196031 0 0 7.56480826402944 -0.75414433135065 1.91054049044507 18.4558726419151 0.299432591952474 2.85271376320774 -6.78836322596971 0 0 -4.13717416667683 1.62520290869788 -2.1235209618274 0 0 0 0 0 0
-2.32010014057159 0 -0.187653385102749 0 0.731324768713 0 0 17.3723151922226 0 -10.4579110434502 1.22898936829358 -0.753294073105635 -2.42290616686591 -0.456989680376861 3.64688720544893 -12.6318605762996 -0.952403741094727 4.07559385693456 4.66692446833768 -30.1786793061151 -43.8962899200189 0.297592115869822 0 0 0 0 0 -12.4646205312397 15.9434551223259 48.2538778784919 -0.00015986231487848 0 0 0 0 0 20.857598522519 -3.1154497244598 -2.0781628529203 -18.9868655057668 0 0 8.58388814378405 0.480540031237129 1.98368196106264 26.5771225243826 1.05633002982485 2.58078728421585 -13.5315464581271 0 0 -4.21757178682574 0.427174245819012 -1.68023497958333 0 0 0 0 0 0
-2.96525361537933 0 -0.224776624701917 0 0.828878179849733 0 0 17.1244978427887 0 -13.0795483657776 1.80546096972992 -0.117533271337229 -6.88688765226374 -0.732077999640479 1.2894108654123 -10.806832731206 -0.683872603673727 1.33824057135583 1.04376553286323 -41.2101720135705 -50.9334932672542 -5.27207481955295E-06 0 0 0 0 0 -13.9611921510013 30.19517873246 53.1261956561624 -6.21593032371457E-05 0 0 0 0 0 30.036097856607 -4.9223648489924 -3.91243302540944 -27.4547223028843 0 0 10.6577337982803 2.41545271427332 2.01259971812211 37.0627136529453 1.31271567318128 1.74062024353062 -24.0180255370805 0 0 -5.16372918967987 -0.830003931036206 -1.2809494237072 0 0 0 0 0 0
-3.63607862591743 0 -0.251032541692257 0 0.963196547345692 0 0 16.7240835189819 0 -15.3796628590249 2.46077351896377 0.869403708875131 -11.0149156900569 -2.13579753802979 -1.66628676005169 -9.26077245366932 -0.46941797082038 -1.5398437966496 -3.0702780854997 -53.9725585660303 -55.8690984030015 -0.000386333200251341 0 0 0 0 0 -11.4122709958853 47.4276246120274 57.5778991186605 -7.41671663282106E-07 0 0 0 0 0 40.0172672197534 -6.34861765263133 -6.52847888480124 -37.3401216829882 0 0 12.7874462222072 4.58394250609966 1.80067464222656 47.7857657307351 0.558496355747256 0.668339717667284 -34.7253989102077 0 0 -8.10999710736375 -3.39741956557534 -1.14708945196742 0 0 0 0 0 0
-4.30906915068626 0 -0.240580921620131 0 1.16602936804164 0 0 16.2022925019264 0 -17.7639042572849 3.67059502735674 1.74044104967587 -13.6110067790069 -4.86425323564113 -4.36001879348213 -7.82110589738356 -0.298611680509747 -3.95319454680056 -6.83464409497954 -66.1197737827997 -57.8775661737534 -0.0167719480561562 0 0 0 0 0 -0.718771297353774 63.7542514631018 66.5961807969788 -3.20476633592069E-07 0 0 0 0 0 49.6677654386307 -6.52248061905799 -9.05137340341793 -46.2715673247366 0 0 15.08248752452 5.38843116274084 1.52857221370538 57.6427630212162 -1.26245655131044 -0.72621991433593 -42.6979884453238 0 0 -11.42655581463 -5.72538451167043 -1.92738333865138 0 0 0 0 0 0
-4.94875783324242 0 -0.170566499978304 0 1.4642237909551 0 0 15.6114805698395 0 -20.5177734527428 5.30840437168558 1.7516440282554 -14.496531331712 -8.18174676531526 -5.83956929316978 -6.32284906542034 -0.327691376550829 -5.10708182429999 -12.6308186638982 -74.4660067752383 -52.4077274902651 -4.26826407853512E-06 0 0 0 0 0 24.9000212356547 73.8509878038357 86.8845586484236 -1.26531910203801E-06 0 0 0 0 0 58.967263151993 -5.13641814836897 -10.257141263288 -54.4683031778451 0 0 16.7124063438706 3.82085467729168 1.40497626035647 66.6055827604033 -3.18082736859229 -2.04344264078878 -49.43223736316 0 0 -11.9272501350533 -7.27850273618105 -2.8684188218371 0 0 0 0 0 0
-5.47605084180832 0 -0.0230849605053663 0 1.85437917329834 0 0 14.9879401683807 0 -23.478602384851 6.80523723216394 0.274805500953308 -13.2597692831075 -11.3432161113547 -5.78398486420839 -5.08984917305133 -0.429035245376571 -4.71542736148686 -22.9544482241501 -74.9111075346697 -35.8352041155396 0.306628802987293 0 0 0 0 0 44.3701503775395 75.1188810366474 97.8844377668181 -1.29800154050054E-07 0 0 0 0 0 67.2777910763969 -2.9324436718633 -9.23919207325896 -61.7549641353735 0 0 17.877599016988 -0.126443637862397 1.696223439123 73.8486408476189 -4.70181322098511 -3.04479178688333 -55.4084513963406 0 0 -6.48283977067524 -5.78830949808554 -3.50531824749135 0 0 0 0 0 0
-5.84663876891136 0 0.176248737052083 0 2.26250176518373 0 0 14.2966194152832 0 -25.3371107548615 7.0162292372782 -2.73654757831925 -10.6418309868157 -12.9700446645763 -3.99365121500787 -3.62209395912884 -0.646805855533968 -3.02692064923419 -24.4995370286839 -65.0133176730521 -21.6639268207312 4.75066422578197 0 0 0 0 0 28.2708624372869 68.2045619438189 71.0809887517722 0.0366217100864097 0 0 0 0 0 73.8375563739721 -0.594593137643005 -5.45993107240361 -68.6585163672614 0 0 19.0303225719542 -5.12711738312993 2.70211448862906 78.6808366966588 -5.88781227987609 -2.70646577435384 -60.0651070328207 0 0 3.5791469344531 0.53060964691754 -3.66949208567574 0 0 0 0 0 0
-6.11475656628609 0 0.304768382757902 0 2.63122760810429 0 0 13.5850267291069 0 -23.6882534315553 6.42067072815524 -5.51912363438786 -8.45414297485229 -12.4139287339346 -1.4538877668935 -1.82789502009678 -0.359454783662668 -0.287612201163122 -12.4198869256221 -44.5103814414873 -14.7583115649089 10.9516141076577 0 0 0 0 0 14.5168368880375 46.1069040938723 44.4103779046266 2.7158424427821 0 0 0 0 0 77.643868345509 2.05583888181587 -0.371645805436754 -76.7150181914257 0 0 18.1636620341323 -9.50421356954874 4.43721361743427 82.0900744601862 -8.12712829043218 -1.77950139381985 -66.6312820706558 0 0 8.163899180867 1.78255865476052 -3.52520693201441 0 0 0 0 0 0
-6.32617527246475 0 0.280444221943617 0 2.97343801331484 0 0 12.9418824791908 0 -17.4904707825556 6.20379058928046 -5.95828339718116 -5.29661508208106 -10.0873363524495 -0.480887734942508 -0.272794325546956 0.468436388313109 3.36083950448611 6.89520518255719 -17.7633858169133 -8.40540617292227 16.972823719543 0 0 0 0 0 16.5039597202159 13.3667520219046 30.8182184881478 9.24254026787497 0 0 0 0 0 76.7227437675576 4.82478190847464 4.26820234208628 -84.3742079115705 0 0 17.4288738026142 -13.8619698243283 5.21101779227729 81.0381625482708 -9.02843106984542 -1.78706612055089 -72.8915261053768 0 0 9.29977667874424 1.68581906788642 -3.48529948348447 0 0 0 0 0 0
